{"title":"Geordie Shore S10E01 1080P WEB-DL","uid":11803526,"size":1624473326,"categoryP":"video","categoryS":"hd___tv_shows","magnet":"?xt=urn:btih:66a9225a689955e2ff210a92665ff6cbb8aa8f4e&amp;dn=Geordie+Shore+S10E01+1080P+WEB-DL&amp;tr=udp%3A%2F%2Ftracker.openbittorrent.com%3A80&amp;tr=udp%3A%2F%2Fopen.demonii.com%3A1337&amp;tr=udp%3A%2F%2Ftracker.coppersurfer.tk%3A6969&amp;tr=udp%3A%2F%2Fexodus.desync.com%3A6969","seeders":24,"leechers":2,"uploader":"jmanwf","files":2,"time":1428454699,"description":"Buzzin'! Our favourite party animals are back! When Charlotte finds out about a pact between Gary and Aaron she hatches a plan - but will she end up with egg on her face?\n\n\n\n\nFormat : MPEG-4\nFormat profile : Base Media / Version 2\nCodec ID : mp42\nFile size : 1.51 GiB\nDuration : 42mn 16s\nOverall bit rate mode : Variable\nOverall bit rate : 5 122 Kbps\nMovie name : 1001\nAlbum : Geordie Shore, Season 10\nAlbum/Performer : Geordie Shore\nPart/Position : 1\nPart/Total : 1\nTrack name/Position : 1\nTrack name/Total : 6\nPerformer : Geordie Shore\nGenre : Reality TV\n\nRecorded date : UTC 2015-04-07 07:00:00\nEncoded date : UTC 2015-04-08 05:08:30\nTagged date : UTC 2015-04-08 05:12:23\nCover : Yes\n\n\nVideo\nID : 2\nFormat : AVC\nFormat/Info : Advanced Video Codec\nFormat profile : &lt;a class=&quot;__cf_email__&quot; href=&quot;/cdn-cgi/l/email-protection&quot; data-cfemail=&quot;db93b2bcb39b97eff5eb&quot;&gt;[email&amp;#160;protected]&lt;/a&gt;&lt;script cf-hash='f9e31' type=&quot;text/javascript&quot;&gt;\n/* &lt;![CDATA[ */!function(){try{var t=&quot;currentScript&quot;in document?document.currentScript:function(){for(var t=document.getElementsByTagName(&quot;script&quot;),e=t.length;e--;)if(t[e].getAttribute(&quot;cf-hash&quot;))return t[e]}();if(t&amp;&amp;t.previousSibling){var e,r,n,i,c=t.previousSibling,a=c.getAttribute(&quot;data-cfemail&quot;);if(a){for(e=&quot;&quot;,r=parseInt(a.substr(0,2),16),n=2;a.length-n;n+=2)i=parseInt(a.substr(n,2),16)^r,e+=String.fromCharCode(i);e=document.createTextNode(e),c.parentNode.replaceChild(e,c)}}}catch(u){}}();/* ]]&gt; */&lt;/script&gt;\nFormat settings, CABAC : Yes\nFormat settings, ReFrames : 4 frames\nCodec ID : avc1\nCodec ID/Info : Advanced Video Coding\nDuration : 42mn 16s\nBit rate : 4 991 Kbps\nWidth : 1 920 pixels\nHeight : 1 080 pixels\nDisplay aspect ratio : 16:9\nFrame rate mode : Constant\nFrame rate : 25.000 fps\nColor space : YUV\nChroma subsampling : 4:2:0\nBit depth : 8 bits\nScan type : Progressive\nBits/(Pixel*Frame) : 0.096\nStream size : 1.47 GiB (97%)\nLanguage : English\nEncoded date : UTC 2015-04-08 05:10:05\nTagged date : UTC 2015-04-08 05:12:14\nColor primaries : BT.709\nTransfer characteristics : BT.709\nMatrix coefficients : BT.709\nColor range : Limited\n\nAudio\nID : 1\nFormat : AAC\nFormat/Info : Advanced Audio Codec\nFormat profile : LC\nCodec ID : 40\nDuration : 42mn 16s\nDuration_LastFrame : -3ms\nBit rate mode : Variable\nBit rate : 127 Kbps\nMaximum bit rate : 203 Kbps\nChannel(s) : 2 channels\nChannel positions : Front: L R\nSampling rate : 48.0 KHz\nCompression mode : Lossy\nStream size : 38.3 MiB (2%)\nLanguage : English\nEncoded date : UTC 2015-04-08 05:08:32\nTagged date : UTC 2015-04-08 05:10:04\n\nText\nID : 3-CC1\nFormat : EIA-608\nMuxing mode : Final Cut\nCodec ID : c608\nDuration : 42mn 15s\nBit rate mode : Constant\nStream size : 0.00 Byte (0%)\nLanguage : English\nEncoded date : UTC 2015-04-08 05:12:15\nTagged date : UTC 2015-04-08 05:12:18\n\n\n &lt;a href=&quot;\nhttps://itunes.apple.com/gb/tv-season/geordie-shore-season-10/id979550691&quot; rel=&quot;nofollow&quot; target=&quot;_NEW&quot;&gt;\nhttps://itunes.apple.com/gb/tv-season/geordie-shore-season-10/id979550691&lt;/a&gt;","torrent":{"xt":"urn:btih:66a9225a689955e2ff210a92665ff6cbb8aa8f4e","amp;dn":"Geordie+Shore+S10E01+1080P+WEB-DL","amp;tr":["udp%3A%2F%2Ftracker.openbittorrent.com%3A80","udp%3A%2F%2Fopen.demonii.com%3A1337","udp%3A%2F%2Ftracker.coppersurfer.tk%3A6969","udp%3A%2F%2Fexodus.desync.com%3A6969"],"infoHash":"66a9225a689955e2ff210a92665ff6cbb8aa8f4e","infoHashBuffer":{"type":"Buffer","data":[102,169,34,90,104,153,85,226,255,33,10,146,102,95,246,203,184,170,143,78]},"announce":[],"urlList":[]}}